<svg xmlns="http://www.w3.org/2000/svg" xmlns:xlink="http://www.w3.org/1999/xlink" width="94" height="20" viewBox="0 0 94 20">
    <defs>
        <path id="uxgr1zy7ia" d="M7.919 15.805c3.385.009 6.137-1.64 7.895-4.15L15.3.505c-.1-.158-.203-.312-.311-.463H.13L.024.193v11.35c1.68 2.447 4.51 4.252 7.895 4.262z"/>
        <path id="gyh0e0mhkc" d="M16.078.026L4.288 3.6C2.558 4.125-.558 7.481.91 8.79l1.128 2.393h5.965l1.806-.547c3.067-.93 5.336-3.223 6.268-5.948V.026z"/>
    </defs>
    <g fill="none" fill-rule="evenodd">
        <g>
            <g>
                <g>
                    <g fill-rule="nonzero">
                        <path fill="#2D3E50" d="M6.172 0c2.752 0 4.223 1.62 4.975 3.187l-2.53 1.247C8.24 3.49 7.265 2.706 6.171 2.706c-1.864 0-3.18 1.496-3.18 3.437 0 1.94 1.316 3.436 3.18 3.436 1.094 0 2.069-.783 2.444-1.727l2.53 1.246c-.734 1.532-2.222 3.187-4.974 3.187C2.667 12.285 0 9.793 0 6.143 0 2.475 2.667 0 6.172 0zm14.655.372v2.562h-5.27v1.777h5.153v2.563h-5.152v1.93h5.269v2.563h-8.128V.372h8.128zm5.077 0l4.645 6.27V.372h2.977v11.395H30.67l-4.852-6.594v6.594h-2.96V.372h3.046zm17.781 0v2.562h-3.12v8.833h-2.886V2.934h-3.137V.372h9.143zm3.995 0v8.833h4.64v2.562h-7.619V.372h2.979zm5.957 0l2.502 4.203L58.607.372h3.365l-4.349 6.8v4.595h-2.968V7.172l-4.366-6.8h3.348z" transform="translate(-655 -1180) translate(120 1145) translate(535 35) translate(31.2)"/>
                        <path fill="#00BE9B" d="M2.818 15.296c.19.117.336.283.441.499.105.216.157.467.157.753 0 .323-.057.608-.172.856-.115.248-.277.44-.487.574-.21.136-.452.203-.726.203-.23 0-.431-.05-.605-.151-.173-.1-.302-.242-.387-.423l-.042.532h-.49l.339-4.265h.49l-.14 1.755c.101-.158.237-.282.409-.372.171-.091.358-.137.56-.137.245 0 .463.059.653.176zm-.152 2.153c.166-.218.248-.518.248-.901 0-.323-.076-.574-.23-.753-.153-.18-.368-.27-.647-.27-.29 0-.518.11-.683.33-.166.22-.248.522-.248.905 0 .33.075.582.227.756.15.173.37.26.656.26.286 0 .512-.109.677-.327zm3.822-2.25h.502l-2.057 4.029h-.502l.58-1.132L3.997 15.2h.502l.804 2.401 1.186-2.4zm4.679 3.012c.974 0 1.5-.568 1.76-1.082l-.895-.424c-.133.32-.478.587-.865.587-.66 0-1.125-.508-1.125-1.167 0-.666.465-1.168 1.125-1.168.387 0 .732.266.865.587l.895-.43c-.26-.526-.786-1.076-1.76-1.076-1.24 0-2.184.84-2.184 2.087 0 1.24.944 2.086 2.184 2.086zm4.33 0c-1.235 0-2.16-.859-2.16-2.086 0-1.228.925-2.087 2.16-2.087 1.233 0 2.153.859 2.153 2.087 0 1.227-.92 2.086-2.154 2.086zm0-.919c.665 0 1.094-.514 1.094-1.167 0-.66-.43-1.168-1.095-1.168s-1.1.508-1.1 1.168c0 .653.435 1.167 1.1 1.167zm4.758.92c1.295 0 1.9-.708 1.9-1.712v-2.396h-1.053v2.365c0 .478-.29.823-.847.823-.562 0-.853-.345-.853-.823v-2.365h-1.058v2.402c0 .992.617 1.705 1.911 1.705zm3.834-.073h-1.04v-4.035h2.02c.907 0 1.403.611 1.403 1.343 0 .726-.496 1.337-1.403 1.337h-.98v1.355zm.822-2.262c.279 0 .502-.158.502-.43 0-.278-.223-.435-.502-.435h-.822v.865h.822zm4.148 2.334c-1.234 0-2.159-.859-2.159-2.086 0-1.228.925-2.087 2.16-2.087 1.233 0 2.153.859 2.153 2.087 0 1.227-.92 2.086-2.154 2.086zm0-.919c.666 0 1.095-.514 1.095-1.167 0-.66-.43-1.168-1.095-1.168s-1.1.508-1.1 1.168c0 .653.435 1.167 1.1 1.167zm6.598.847v-4.035h-1.046v2.22l-1.633-2.22h-1.071v4.035h1.04v-2.335l1.706 2.335h1.004zm1.505 0V16.3h2.099v-.448h-2.1v-1.3h2.142v-.448H36.66v4.035h.502zm4.831.072c-1.197 0-2.002-.895-2.002-2.086 0-1.192.805-2.087 2.002-2.087 1.192 0 2.003.895 2.003 2.087 0 1.191-.811 2.086-2.003 2.086zm0-.447c.902 0 1.482-.702 1.482-1.64 0-.943-.58-1.639-1.482-1.639-.907 0-1.481.696-1.481 1.64 0 .937.574 1.639 1.481 1.639zm5.334.375v-.448h-1.875v-3.587h-.502v4.035h2.377zm3.253 0v-.448h-1.875v-3.587h-.502v4.035h2.377zm2.509.072c-1.198 0-2.002-.895-2.002-2.086 0-1.192.804-2.087 2.002-2.087 1.191 0 2.002.895 2.002 2.087 0 1.191-.81 2.086-2.002 2.086zm0-.447c.901 0 1.482-.702 1.482-1.64 0-.943-.581-1.639-1.482-1.639-.908 0-1.482.696-1.482 1.64 0 .937.574 1.639 1.482 1.639zm6.464.375l1.15-4.035h-.557l-.889 3.363-.925-3.363h-.418l-.925 3.363-.895-3.363h-.557l1.15 4.035h.544l.889-3.254.89 3.254h.543z" transform="translate(-655 -1180) translate(120 1145) translate(535 35) translate(31.2)"/>
                    </g>
                    <g>
                        <path fill="#00BE9B" d="M12.286 19.677c-5.263 0-9.566-4.28-9.566-9.53v-.264c0-5.25 4.303-9.53 9.566-9.53 5.35 0 9.653 4.28 9.653 9.53v.265c0 5.25-4.302 9.529-9.653 9.529z" transform="translate(-655 -1180) translate(120 1145) translate(535 35)"/>
                        <g transform="translate(-655 -1180) translate(120 1145) translate(535 35) translate(4.399 3.895)">
                            <mask id="lvx0dc5okb" fill="#fff">
                                <use xlink:href="#uxgr1zy7ia"/>
                            </mask>
                            <path fill="#FFB900" d="M2.759 21.484L15.3 18.333 7.474.042 1.627 1.865C.543 2.203-.13 3.328.055 4.492l2.704 16.992z" mask="url(#lvx0dc5okb)"/>
                        </g>
                        <g>
                            <path fill="#61372D" d="M6.455 7.286c-.095-.015-.182-.027-.278-.035-.094-.01-.191-.015-.293-.017-.203-.005-.421.002-.653.027-.465.049-.988.165-1.545.402-.343.121-.705.29-1.06.525-.09.057-.176.122-.265.186-.085.068-.174.135-.258.21-.171.146-.333.31-.49.484-.308.352-.583.755-.798 1.183-.218.427-.384.875-.505 1.317-.12.442-.197.878-.245 1.293-.01.103-.024.207-.03.307l-.02.298c-.006.098-.008.194-.011.289l-.004.14v.138c0 .728.065 1.336.13 1.78.052.304.11.546.152.74.047.191.084.331.11.42.058.187.133.361.217.526.087.162.185.312.291.448.11.135.227.256.35.362.124.107.257.195.393.27.27.15.561.231.849.247.288.015.575-.038.847-.163.273-.124.505-.307.693-.526.19-.22.332-.475.435-.75.2-.548.225-1.162.048-1.741-.02-.069-.056-.174-.108-.316-.046-.142-.114-.321-.18-.536-.116-.31-.266-.725-.399-1.198l-.026-.09-.022-.09-.048-.184-.042-.189c-.015-.064-.025-.127-.038-.192-.05-.257-.086-.523-.104-.787-.034-.531.009-1.058.174-1.555.043-.123.09-.248.147-.367.026-.061.059-.118.089-.179.033-.057.064-.117.1-.173.14-.23.309-.443.489-.64.325-.292.678-.528 1.017-.716.169-.095.335-.178.493-.252l.23-.103.208-.087-.04-.706z" transform="translate(-655 -1180) translate(120 1145) translate(535 35) translate(0 .72)"/>
                            <path fill="#FFDBBB" d="M8.529 8.933c-1.466-1.317-1.072-3.867.654-4.394L23.897.043c1.083 4.55-1.745 9.298-6.49 10.747l-7.01 2.142" transform="translate(-655 -1180) translate(120 1145) translate(535 35) translate(0 .72)"/>
                        </g>
                        <g transform="translate(-655 -1180) translate(120 1145) translate(535 35) translate(7.53 .353)">
                            <mask id="m9e5im7wbd" fill="#fff">
                                <use xlink:href="#gyh0e0mhkc"/>
                            </mask>
                            <path fill="#FFE5CD" d="M.403 7.083c-1.47-1.308-1.074-3.843.656-4.367l14.746-4.468c1.087 4.521-1.748 9.24-6.504 10.681l-7.025 2.129" mask="url(#m9e5im7wbd)"/>
                        </g>
                        <g>
                            <path fill="#DD730C" d="M11.37 2.64L19.64.045c.805 3.284-.275 6.446-2.488 7.152-2.214.706-4.763-1.34-5.782-4.557z" transform="translate(-655 -1180) translate(120 1145) translate(535 35) translate(4.281 .154)"/>
                            <path fill="#FFB900" d="M11.235 12.494L7.59 3.781 1.642 5.678C.54 6.029-.146 7.2.042 8.41l1.061 5.612 10.132-1.529z" transform="translate(-655 -1180) translate(120 1145) translate(535 35) translate(4.281 .154)"/>
                            <path fill="#61372D" d="M7.128 5.107s.7 1.971-.515 2.358C5.4 7.853 4.833 5.84 4.833 5.84s.809 1.31 1.619 1.05c.81-.257.676-1.782.676-1.782" transform="translate(-655 -1180) translate(120 1145) translate(535 35) translate(4.281 .154)"/>
                            <path fill="#DD730C" d="M9.189 9.221c-.175 4.07-1.987 7.285-4.047 7.182-2.06-.102-3.589-3.485-3.414-7.554" transform="translate(-655 -1180) translate(120 1145) translate(535 35) translate(4.281 .154)"/>
                            <path fill="#FFB900" d="M.821 7.494c.412 1.857 4.933 5.43 9.965 4.44L9.366 8.14l-5.007.624-3.538-1.27z" transform="translate(-655 -1180) translate(120 1145) translate(535 35) translate(4.281 .154)"/>
                            <path fill="#61372D" d="M4.158 6.054s.7 1.97-.514 2.358c-1.215.388-1.78-1.626-1.78-1.626s.808 1.31 1.618 1.05c.81-.257.676-1.782.676-1.782" transform="translate(-655 -1180) translate(120 1145) translate(535 35) translate(4.281 .154)"/>
                            <path fill="#FFC266" d="M11.92 7.248c.05.182.23.286.4.231.17-.055.266-.246.215-.429-.05-.182-.23-.286-.4-.231-.17.055-.267.246-.216.429M11.113 8.583c.051.183.23.286.4.231.17-.054.267-.246.216-.428-.05-.182-.23-.286-.4-.231-.17.054-.267.246-.216.428M12.445 8.518c.05.183.23.286.4.232.17-.055.266-.247.216-.43-.051-.181-.23-.285-.4-.23-.17.054-.267.246-.216.428" transform="translate(-655 -1180) translate(120 1145) translate(535 35) translate(4.281 .154)"/>
                        </g>
                    </g>
                </g>
            </g>
        </g>
    </g>
</svg>
